<?xml version="1.0" standalone="no"?>
<!DOCTYPE svg PUBLIC "-//W3C//DTD SVG 20010904//EN"
 "http://www.w3.org/TR/2001/REC-SVG-20010904/DTD/svg10.dtd">
<svg version="1.0" xmlns="http://www.w3.org/2000/svg"
 width="960.000000pt" height="960.000000pt" viewBox="0 0 960.000000 960.000000"
 preserveAspectRatio="xMidYMid meet">

<g transform="translate(0.000000,960.000000) scale(0.100000,-0.100000)"
fill="#000000" stroke="none">
<path d="M975 5834 c158 -952 602 -1765 1247 -2285 107 -86 310 -223 412 -277
l59 -32 1076 -5 c592 -3 1181 -7 1310 -10 l233 -4 107 -67 c58 -37 207 -131
331 -209 528 -333 1248 -786 1410 -888 96 -61 276 -174 400 -252 124 -78 316
-199 428 -269 112 -71 205 -126 208 -123 6 6 -50 307 -82 437 -54 218 -167
504 -303 766 -346 668 -832 1167 -1381 1421 -73 34 -374 139 -825 289 -390
129 -1128 374 -1640 544 -511 170 -1388 460 -1948 645 -561 185 -1025 339
-1033 342 -10 4 -13 -2 -9 -23z"/>
</g>
</svg>
